<svg width="411" height="225" viewBox="0 0 411 225" fill="none" xmlns="http://www.w3.org/2000/svg">
<path d="M21.1834 224.536L21.1502 224.469C21.1502 224.469 21.1153 224.401 21.1153 224.369C20.9824 224.101 -32.696 148.591 50.7514 96.0259C83.4035 75.4582 48.7085 61.882 74.6725 38.9848C104.51 12.6729 137.072 41.7814 170.254 29.8498C176.117 27.7428 181.999 24.3535 187.887 19.1512C193.712 14.0156 200.436 10.0686 207.762 7.10993C217.751 3.08981 228.584 0.992364 239.631 0.274147C276.704 -2.10932 318.428 11.2953 339.959 30.8842C344.292 34.8296 364.005 55.24 348.467 83.2966C338.657 101.011 379.754 117.927 394.36 138.156C419.101 172.424 411.126 199.29 402.95 213.596C401.912 215.415 400.87 217.031 399.892 218.431C397.014 222.553 394.684 224.833 394.601 225C394.602 225 21.2847 224.806 21.1834 224.536Z" fill="#D2E0FF" fill-opacity="0.1"/>
<path d="M273.508 98.0826C273.508 98.0826 282.235 61.0917 311.678 57.0236C311.678 57.0236 317.407 56.3198 319.314 62.628C321.222 68.9363 309.832 68.9819 302.791 71.5186C295.751 74.0568 279.337 84.8128 273.508 98.0826Z" fill="#8C9DF4"/>
<path d="M272.838 91.1601C272.838 91.1601 269.777 60.5198 291.263 49.6449C291.263 49.6449 295.466 47.597 298.589 51.9258C301.712 56.2562 293 59.2914 288.273 63.0907C283.549 66.89 273.808 79.456 272.838 91.1601Z" fill="#8C9DF4"/>
<path d="M248.62 94.5977C248.62 94.5977 269.474 88.6854 264.226 72.6574C264.226 72.6574 259.407 62.4341 252.576 58.4703C252.576 58.4703 251.525 80.2543 247.483 79.8095C243.441 79.3631 250.404 55.6192 250.404 55.6192C250.404 55.6192 233.252 41.6749 225.473 40.5964C225.473 40.5964 232.633 63.8222 228.826 62.395C225.018 60.9679 216.445 37.1458 216.445 37.1458C216.445 37.1458 197.455 28.7261 191.458 39.7378C185.46 50.7495 189.207 57.8659 191.975 59.3045C194.743 60.743 213.687 65.005 212.612 67.3397C211.536 69.6759 197.845 70.5557 191.259 66.6505C191.259 66.6505 194.484 87.9001 205.02 89.3778C215.556 90.8555 220.266 85.238 226.76 86.2693C233.254 87.3006 237.504 90.1289 233.907 91.0852C230.308 92.0415 219.792 88.3123 213.596 91.4615C207.4 94.6108 202.587 96.3149 211.685 100.559C220.782 104.805 238.244 107.675 243.434 101.136C248.62 94.5977 248.62 94.5977 248.62 94.5977Z" fill="#BBD0FF"/>
<path d="M199.655 45.5818C199.655 45.5818 247.182 74.5521 248.62 94.5978C248.62 94.5978 246.385 102.879 249.252 113.674L248.374 117.353C248.374 117.353 245.963 103.557 243.43 101.137C243.431 101.137 258.821 87.6997 199.655 45.5818Z" fill="#BBD0FF"/>
<path d="M249.252 113.674C249.252 113.674 254.318 127.631 246.286 141.233L244.373 140.197C244.373 140.197 250.215 124.498 248.001 115.372C245.785 106.246 249.252 113.674 249.252 113.674Z" fill="#BBD0FF"/>
<path d="M89.0275 155.531C89.0275 155.531 96.0118 136.668 81.3979 132.99C81.3979 132.99 71.2774 131.773 64.6596 135.114C64.6596 135.114 80.0783 146.401 77.5563 149.291C75.0343 152.182 61.3881 135.411 61.3881 135.411C61.3881 135.411 41.8394 141.877 36.8231 147.333C36.8231 147.333 57.7583 153.006 54.6433 155.245C51.5282 157.483 29.3874 152.607 29.3874 152.607C29.3874 152.607 12.8967 163.143 17.7224 173.047C22.5481 182.952 29.8045 183.498 32.364 182.064C34.9218 180.631 48.3366 168.128 49.4673 170.078C50.598 172.029 43.8091 182.969 37.3673 186.149C37.3673 186.149 54.7149 193.894 61.5201 186.512C68.3252 179.13 66.7612 172.811 71.0444 168.319C75.3275 163.827 79.7117 161.923 78.4605 165.147C77.2076 168.371 68.7602 174.655 67.7078 180.929C66.6553 187.203 65.2917 191.721 73.3464 186.774C81.4028 181.828 92.9913 169.797 91.0102 162.666C89.0275 155.531 89.0275 155.531 89.0275 155.531Z" fill="#8C9DF4"/>
<path d="M26.463 169.562C26.463 169.562 73.5338 146.993 89.0274 155.531C89.0274 155.531 94.1594 161.88 91.0085 162.664C91.0085 162.664 89.5048 144.376 26.463 169.562Z" fill="#8C9DF4"/>
<path d="M319.756 78.2357H71.3376V223.353H319.756V78.2357Z" fill="#1C468A"/>
<path d="M197.348 223.87V82.672C197.348 82.672 166.668 67.9473 126.136 78.5485C85.6028 89.1497 78.2633 82.672 78.2633 82.672V223.353L197.348 223.87Z" fill="#EBF3FA"/>
<path d="M196.975 223.87V82.672C196.975 82.672 227.656 67.9473 268.187 78.5485C308.72 89.1497 316.059 82.672 316.059 82.672V223.353L196.975 223.87Z" fill="#EBF3FA"/>
<path d="M110.564 69.9122C110.564 69.9122 98.4051 68.0516 94.6628 74.7101C90.9222 81.3703 97.2353 100.658 91.8574 112.527C91.8574 112.527 96.4061 112.429 97.9147 111.286L98.4882 115.754C98.4882 115.754 103.581 113.571 105.036 107.648C106.491 101.724 104.412 77.716 105.764 74.2865C107.116 70.8571 110.564 69.9122 110.564 69.9122Z" fill="#B95E37"/>
<g clip-path="url(#clip0)">
<path d="M229.882 213.651C221.877 213.673 213.879 213.151 205.944 212.089C205.685 212.056 205.423 212.019 205.162 211.98C203.214 211.704 201.266 211.389 199.371 211.043C190.847 209.489 182.808 207.221 175.478 204.299C151.086 194.578 135.75 196.647 127.18 200.094C117.905 203.825 114.34 209.929 114.305 209.991L114 209.818C114.035 209.756 117.647 203.561 127.023 199.781C132.52 197.565 138.897 196.596 145.979 196.901C154.819 197.283 164.788 199.663 175.608 203.975C182.916 206.887 190.933 209.15 199.435 210.699C201.324 211.044 203.268 211.359 205.213 211.634C205.472 211.673 205.732 211.709 205.991 211.742C227.498 214.69 248.247 212.912 261.866 210.902C273.092 209.245 280.316 207.308 280.388 207.289L280.479 207.626C280.408 207.646 273.165 209.588 261.918 211.248C251.312 212.822 240.605 213.625 229.882 213.651V213.651Z" fill="#3F3D56"/>
<path d="M229.906 113.345C223.723 113.345 217.703 113.057 211.894 112.481C198.548 111.156 186.296 108.299 175.478 103.988C151.086 94.2666 135.75 96.3354 127.18 99.7828C117.905 103.514 114.34 109.618 114.305 109.679L114 109.506C114.035 109.444 117.647 103.249 127.023 99.4693C132.52 97.2529 138.897 96.2838 145.979 96.5895C154.819 96.9708 164.788 99.3507 175.608 103.663C200.039 113.399 227.224 113.782 245.727 112.39C265.783 110.88 280.244 107.016 280.388 106.977L280.479 107.314C280.336 107.353 265.848 111.225 245.761 112.738C240.383 113.143 235.087 113.345 229.906 113.345Z" fill="#3F3D56"/>
<path d="M228.998 87.6898C228.998 87.6898 222.102 85.2359 217.668 95.0515C213.235 104.867 206.339 115.664 206.339 115.664L210.28 116.646C210.28 116.646 211.265 109.775 213.728 108.793L212.743 117.627C212.743 117.627 242.298 127.934 255.597 116.646L255.105 113.21C255.105 113.21 257.075 113.701 257.075 116.646L258.553 115.173C258.553 115.173 257.075 112.229 252.642 108.303C249.732 105.726 248.732 100.823 248.388 97.7576C248.131 95.198 247.103 92.7758 245.44 90.8085C242.494 87.4066 237.125 83.7909 228.998 87.6898Z" fill="#2F2E41"/>
<path d="M270.853 143.232C270.853 143.232 283.83 154.261 285.738 160.725C287.647 167.19 278.487 167.951 278.487 167.951L258.639 169.852C258.639 169.852 258.257 178.979 254.822 180.12C251.387 181.261 254.125 165.027 254.125 165.027L273.525 159.585L264.746 150.458L270.853 143.232Z" fill="#FBBEBE"/>
<path d="M210.166 154.641L208.639 174.796L200.242 209.021C200.242 209.021 192.608 224.613 199.097 224.993C205.586 225.373 205.204 210.162 205.204 210.162L217.418 177.838L218.563 155.782L210.166 154.641Z" fill="#FBBEBE"/>
<path d="M231.54 119.275C238.496 119.275 244.135 113.656 244.135 106.725C244.135 99.7946 238.496 94.1761 231.54 94.1761C224.584 94.1761 218.944 99.7946 218.944 106.725C218.944 113.656 224.584 119.275 231.54 119.275Z" fill="#FBBEBE"/>
<path d="M225.815 112.81C225.815 112.81 230.395 129.162 223.143 133.345C215.891 137.528 241.463 140.57 248.334 128.021C248.334 128.021 236.12 123.838 239.555 112.81H225.815Z" fill="#FBBEBE"/>
<path d="M217.036 135.246L214.746 134.486C214.746 134.486 210.166 136.387 210.166 139.81C210.166 143.232 209.402 156.923 209.402 156.923L219.708 158.063L217.036 135.246Z" fill="#7D0068"/>
<path d="M261.892 211.075C247.802 213.155 227.266 214.834 205.968 211.916C205.967 211.706 205.967 211.502 205.967 211.302C205.967 210.116 206.012 208.942 206.103 207.783C207.194 193.501 214.579 181.595 217.436 177.469C217.58 177.259 217.713 177.07 217.833 176.903C218.294 176.258 218.562 175.917 218.562 175.917C218.562 175.917 240.7 175.557 252.15 180.12C252.702 180.351 253.207 180.68 253.641 181.092C257.91 185.017 260.418 197.76 261.892 211.075Z" fill="#2F2E41"/>
<path d="M253.677 129.923C253.677 129.923 258.639 127.261 263.601 132.965L273.525 144.373L265.891 152.739L251.387 143.993L253.677 129.923Z" fill="#7D0068"/>
<path d="M217.929 106.805C222.388 103.59 225.998 99.8866 228.385 95.4815C228.385 95.4815 236.568 104.54 241.569 104.993C246.569 105.446 242.023 94.1227 242.023 94.1227L232.931 91.858L224.294 92.7639L217.475 97.2932L217.929 106.805Z" fill="#2F2E41"/>
<path d="M246.425 127.261C246.425 127.261 241.084 135.675 225.052 131.658L215.955 134.154L214.746 134.486C214.746 134.486 215.891 157.303 218.944 161.486C221.998 165.669 221.234 167.951 220.471 168.331C219.708 168.711 217.799 167.951 218.944 169.852C220.089 171.754 221.616 170.613 220.089 171.754C218.563 172.894 217.799 177.077 217.799 177.077L253.677 181.641C253.677 181.641 252.532 166.81 255.586 159.204C258.639 151.599 259.402 148.556 259.402 148.556L257.112 129.542L246.425 127.261Z" fill="#7D0068"/>
<path d="M171.86 119.816H122.747V180.982H171.86V119.816Z" fill="#E6E6E6"/>
<path d="M136.692 124.971H126.168V131.962H136.692V124.971Z" fill="white"/>
<path d="M166.948 138.602H126.255V141.049H166.948V138.602Z" fill="white"/>
<path d="M166.948 145.069H126.255V147.515H166.948V145.069Z" fill="white"/>
<path d="M166.948 151.535H126.255V153.981H166.948V151.535Z" fill="white"/>
<path d="M166.948 158.001H126.255V160.447H166.948V158.001Z" fill="white"/>
<path d="M166.948 164.467H126.255V166.913H166.948V164.467Z" fill="white"/>
<path d="M181.507 180.894C181.505 183.202 180.667 185.432 179.146 187.174C177.626 188.916 175.526 190.053 173.232 190.376C170.939 190.699 168.605 190.186 166.66 188.932C164.715 187.677 163.29 185.766 162.646 183.549C162.002 181.332 162.183 178.957 163.155 176.862C164.128 174.767 165.826 173.092 167.939 172.145C170.051 171.197 172.436 171.042 174.655 171.706C176.873 172.37 178.777 173.809 180.016 175.76C180.99 177.296 181.507 179.077 181.507 180.894V180.894Z" fill="#7D0068"/>
<path d="M180.016 175.76L170.52 185.219C169.923 184.299 166.598 180.02 166.598 180.02C167.024 179.591 167.479 179.191 167.959 178.823L170.716 182.486L178.904 174.329C179.319 174.77 179.691 175.249 180.016 175.76V175.76Z" fill="white"/>
</g>
<path d="M48.6511 121.522L49.1757 120.587C49.7361 119.588 51.0036 119.231 52.0023 119.792L59.8502 124.195C60.8489 124.756 61.2057 126.023 60.6452 127.022L59.8942 128.361C59.785 128.557 59.5374 128.627 59.3419 128.518C59.1464 128.408 59.0763 128.161 59.1855 127.964L59.9365 126.624C60.277 126.017 60.0604 125.245 59.4527 124.904L51.6048 120.5C50.9971 120.16 50.2249 120.377 49.8844 120.984L49.3598 121.919C49.0193 122.527 49.236 123.299 49.8437 123.64L55.0538 126.563C55.2493 126.672 55.3194 126.919 55.2102 127.115C55.1011 127.31 54.8534 127.38 54.6563 127.271L49.4461 124.349C48.4474 123.788 48.0923 122.521 48.6511 121.522Z" fill="#8C9DF4"/>
<path d="M40.4057 117.426L41.3458 115.75C42.219 114.194 44.2865 113.687 45.9548 114.624L57.7534 121.243C57.9489 121.352 58.019 121.6 57.9098 121.796C57.8007 121.991 57.553 122.061 57.3559 121.952L45.5572 115.333C44.28 114.616 42.7094 114.982 42.0545 116.147L41.1144 117.824C40.4595 118.99 40.9678 120.522 42.2435 121.238L55.6827 128.778C56.96 129.495 58.5305 129.129 59.1855 127.964C59.2946 127.768 59.5423 127.698 59.7378 127.807C59.9333 127.916 60.0033 128.164 59.8925 128.361C59.0193 129.917 56.9518 130.424 55.2835 129.487L41.8443 121.947C40.1776 121.01 39.5325 118.984 40.4057 117.426Z" fill="#8C9DF4"/>
<path d="M75.3666 163.321C75.3666 163.321 71.2138 162.496 66.5836 167.641C63.3741 171.206 68.3578 173.182 63.4018 178.101C57.5774 183.883 59.06 191.538 63.9313 192.309C68.1753 192.982 75.3373 187.12 78.0401 186.972C83.5973 186.665 86.3865 183.099 81.1584 177.501C79.5928 175.825 82.0919 173.052 81.5771 169.109C81.222 166.403 79.3239 163.438 75.3666 163.321Z" fill="#4C62BF"/>
<path d="M79.0306 182.428C79.0306 182.428 89.6139 187.045 91.727 186.954C93.84 186.861 106.857 182.988 106.857 182.988L106.525 185.228C106.525 185.228 96.4777 191.007 92.9652 191.335C89.5064 191.657 77.6833 188.231 76.5412 187.508C75.4024 186.783 75.7136 183.161 79.0306 182.428Z" fill="#ED985F"/>
<path d="M79.3891 187.513C78.3676 188.221 77.0854 188.806 75.4758 189.178C69.4445 190.571 67.1327 185.473 66.2643 181.975C67.087 181.504 67.8609 181.4 68.3073 181.348C68.7439 181.295 69.2017 181.261 69.5813 181.243C70.2591 180.725 71.2676 178.601 71.4908 175.305L71.7742 175.381L76.5282 176.683C76.5282 176.683 76.3099 178.193 76.204 179.622C76.1209 180.74 76.1079 181.807 76.3197 182.069C76.6912 182.149 76.9127 182.203 76.9127 182.203C76.9127 182.203 76.9127 182.205 76.9144 182.208C76.9812 182.31 78.3611 184.578 79.3891 187.513Z" fill="#EA9F6B"/>
<path d="M76.5315 176.682C76.5315 176.682 76.3132 178.192 76.2073 179.621C73.5142 179.352 72.2646 176.787 71.7775 175.38L76.5315 176.682Z" fill="#ED985F"/>
<path d="M77.3347 178.101C77.3347 178.101 70.9433 177.749 71.2236 173.77C71.5038 169.793 70.8684 167.069 74.9626 167.125C79.0551 167.182 79.741 168.756 79.9691 170.106C80.1972 171.457 79.0046 178.089 77.3347 178.101Z" fill="#EA9F6B"/>
<path d="M79.9381 167.882C79.0372 166.615 78.2731 166.825 77.8283 167.154C74.4754 164.986 72.0235 167.661 72.0235 167.661C71.3914 170.484 69.2164 171.972 69.2164 171.972C69.2164 171.972 70.3291 172.773 73.0613 172.276C73.8954 172.125 74.6693 171.595 75.3422 170.932C74.1268 172.674 72.5546 173.879 72.5546 173.879C75.8651 172.628 77.4715 168.264 77.6344 167.801C77.9994 168.179 78.713 168.995 78.8938 169.756C79.1398 170.792 80.1988 172.41 80.8114 172.384C80.8097 172.384 81.2887 169.782 79.9381 167.882Z" fill="#4C62BF"/>
<path d="M64.4461 200.509C63.8693 197.558 61.986 185.768 63.8693 181.975C64.5455 180.611 67.1978 180.489 70.1075 180.608C71.0134 181.193 74.464 183.402 75.8814 183.127C75.8961 183.123 75.9238 183.117 75.9612 183.109C76.6292 182.943 76.8801 182.473 76.3246 182.069C76.3229 182.069 77.7664 181.931 79.5552 182.266C80.567 182.457 83.2926 183.868 83.2926 183.868C83.2926 183.868 81.9192 186.349 79.8941 187.205C80.2379 190.285 79.7263 191.644 76.5315 198.757C73.8319 204.771 76.8964 210.184 76.8964 210.184C76.8964 210.184 61.002 222.964 60.914 216.457C60.8456 211.558 65.1825 204.28 64.4461 200.509Z" fill="#8C9DF4"/>
<path d="M77.6817 224.08C78.5468 223.982 79.3239 223.51 79.8078 222.786C79.8844 222.671 79.9658 222.548 80.0538 222.416C81.8622 219.678 82.5677 211.291 86.6358 202.354C87.6263 200.18 91.1845 199.789 92.1555 197.328C92.1555 197.328 94.5439 189.358 87.5856 189.122C80.6273 188.888 68.9492 211.3 68.7651 213.651C68.5859 215.927 64.1643 225.606 77.6817 224.08Z" fill="#C95F17"/>
<path d="M105.341 223.897H95.4367C95.4367 223.897 95.0668 222.317 95.7169 221.242C96.292 220.29 96.072 219.749 95.6452 218.963C96.0932 219.147 96.6748 219.313 97.3135 219.277C97.8071 219.249 98.3285 219.024 98.7863 218.759C99.2131 219.244 101.038 221.313 101.608 221.724C102.255 222.188 105.14 222.022 105.341 223.897Z" fill="#233862"/>
<path d="M65.4888 185.065C65.4888 185.065 64.2001 196.794 72.5595 199.251C80.9189 201.708 83.2927 188.461 76.5429 187.508C69.7931 186.555 65.4888 185.065 65.4888 185.065Z" fill="#6980E2"/>
<path d="M92.3819 191.426C92.9782 195.896 95.308 210.008 99.4152 216.893C100.74 219.112 96.0786 220.357 96.0525 220.351C95.4269 220.188 94.3858 219.191 93.9052 218.757C90.5703 215.751 83.7993 207.239 83.7993 200.416C83.7993 197.089 83.7407 190.733 86.16 189.119C87.6524 188.125 92.1457 189.65 92.3819 191.426Z" fill="#C95F17"/>
<path d="M71.7759 223.897C71.7759 223.897 72.1424 223.387 72.7827 222.416C73.5435 221.263 74.3875 218.992 75.4106 216.082C76.4842 213.027 77.7599 209.269 79.3516 205.357C79.8436 204.15 80.365 202.928 80.9205 201.708C81.9127 199.533 84.6384 199.832 85.6094 197.374C85.6094 197.374 89.3956 188.848 82.4357 188.614C75.4774 188.379 62.2548 211.419 61.494 213.651C60.6631 216.094 56.6048 226.237 71.7759 223.897Z" fill="#FFA561"/>
<path d="M98.0695 223.897H88.1656C88.1656 223.897 87.7958 222.317 88.4458 221.242C89.0209 220.29 88.801 219.749 88.3741 218.963C88.8222 219.147 89.4038 219.313 90.0424 219.277C90.5361 219.249 91.0574 219.024 91.5152 218.759C91.9421 219.244 93.7668 221.313 94.337 221.724C94.9838 222.188 97.8707 222.022 98.0695 223.897Z" fill="#2B478B"/>
<path opacity="0.5" d="M75.4106 216.082C76.4842 213.027 77.7599 209.269 79.3516 205.357C78.9362 202.394 78.0385 199.802 76.5299 198.757C76.5299 198.757 72.8707 210.096 75.4106 216.082Z" fill="#C95F17"/>
<path d="M86.6016 191.108C87.1978 195.579 88.0385 210.008 92.1457 216.893C93.4703 219.112 88.8091 220.357 88.7831 220.351C88.1574 220.188 87.1164 219.191 86.6358 218.757C83.3008 215.751 76.5299 207.239 76.5299 200.416C76.5299 197.089 80.435 191.001 82.8544 189.386C84.3451 188.392 86.3637 189.332 86.6016 191.108Z" fill="#FFA561"/>
<path d="M78.5322 175.813C78.5322 175.813 77.9277 175.574 76.2269 175.712C76.2269 175.712 76.3165 176.375 77.571 176.44C78.2813 176.478 78.5322 175.813 78.5322 175.813Z" fill="white"/>
<path d="M108.1 178.303L106.048 174.598L101.605 186.994L104.226 189.806L108.1 178.303Z" fill="#163560"/>
<path d="M97.3787 180.473L93.2504 192.27L104.226 189.806L108.1 178.303L97.3787 180.473Z" fill="#1C468A"/>
<path d="M98.3741 180.271L107.571 177.9L107.833 178.356L98.3741 180.271Z" fill="white"/>
<path d="M107.729 178.192L105.88 174.779L104.21 178.928L107.589 178.15L107.729 178.192Z" fill="white"/>
<path d="M100.547 182.182C100.191 182.113 99.425 181.825 98.6495 181.612C98.8808 181.432 99.1382 181.211 99.2099 180.984C99.3484 180.548 99.4413 180.408 98.9802 180.544C98.5191 180.683 96.9062 181.423 96.9062 181.423L96.9095 181.424C95.9923 181.691 95.1483 182.987 95.1483 182.987C95.1483 182.987 83.801 186.975 82.4357 187.045C80.3243 187.151 66.2659 181.975 66.2659 181.975C62.9489 182.706 63.6934 186.783 64.8339 187.506C65.9759 188.229 76.0916 191.91 82.0854 191.978C85.1223 192.014 96.1666 184.914 96.1666 184.914C96.1666 184.914 97.4569 184.324 98.4719 184.508C99.4869 184.692 101.838 184.508 102.345 183.679C102.853 182.85 101.147 182.296 100.547 182.182Z" fill="#EA9F6B"/>
<path d="M73.5093 184.528C73.5093 184.528 72.2516 188.508 67.9342 189.414C67.9342 189.414 60.8032 187.218 64.3532 182.359C64.3532 182.359 67.8642 179.751 73.5093 184.528Z" fill="#8C9DF4"/>
<path d="M107.915 182.482C107.916 182.372 107.905 182.263 107.876 182.159C107.876 182.159 106.859 180.549 106.525 180.484C105.51 180.284 105.51 181.62 105.725 182.482C105.875 183.081 106.256 183.658 106.566 183.969L106.525 185.228C108.241 184.285 107.915 182.482 107.915 182.482Z" fill="#EA9F6B"/>
<path d="M324.202 149.29C327.802 140.114 329.969 133.422 330.372 124.784L320.737 132.42C320.737 132.42 329.239 121.313 331.165 117.314C334.13 111.157 334.595 104.946 335.302 98.0793L326.815 107.141L333.762 96.8623C335.026 94.992 335.753 92.8089 335.849 90.5541C335.921 88.889 335.953 87.2387 335.94 85.6095C335.94 85.6095 322.073 98.0158 310.645 115.347L313.928 124.414L309.052 117.817C305.722 123.122 302.674 128.832 300.347 134.753C300.223 135.069 300.119 135.37 300.002 135.681C302.499 141.836 306.699 152.49 305.328 151.176C304.148 150.047 300.728 145.209 298.14 141.348C292.046 163.376 303.006 173.117 303.006 173.117C303.006 173.117 309.155 172.32 314.143 168.11C316.659 165.988 324.199 157.328 324.199 157.328H318.275C318.276 157.327 322.434 153.793 324.202 149.29Z" fill="#FFA561"/>
<path d="M297.056 200.443L290.513 210.82C290.68 210.173 310.059 142.095 321.082 115.17L324.891 108.809C313.918 135.608 297.224 199.795 297.056 200.443Z" fill="#1C468A"/>
<path d="M366.592 160.479C362.377 156.255 359.191 153.428 354.497 151.108L356.393 158.306C356.393 158.306 352.297 150.893 350.546 148.855C347.851 145.715 344.518 143.949 340.88 141.89L343.845 148.798L339.831 142.449C339.101 141.294 338.066 140.36 336.838 139.759C335.932 139.316 335.025 138.896 334.117 138.508C334.117 138.508 337.633 149.212 344.471 159.757L350.297 160.137L345.455 161.24C347.589 164.375 350.017 167.452 352.736 170.179C352.881 170.324 353.022 170.456 353.167 170.597C357.187 170.706 364.117 170.961 363.055 171.405C362.143 171.786 358.629 172.506 355.859 173.006C366.599 181.734 374.661 178.019 374.661 178.019C374.661 178.019 375.712 174.415 374.588 170.626C374.021 168.716 371.048 162.431 371.048 162.431L369.609 165.717C369.611 165.717 368.66 162.553 366.592 160.479Z" fill="#BBD0FF"/>
<path d="M388.376 187.954L392.542 194.103C392.223 193.853 359.166 166.577 346.906 153.927L344.303 150.269C356.506 162.861 388.057 187.705 388.376 187.954Z" fill="#8C9DF4"/>
<path d="M303.77 223.798H282.959C279.57 223.798 276.797 221.025 276.797 217.636V206.414C276.797 205.448 277.579 204.666 278.545 204.666H308.184C309.15 204.666 309.932 205.45 309.932 206.414V217.636C309.933 221.025 307.161 223.798 303.77 223.798Z" fill="#6980E2"/>
<path d="M306.867 215.683V217.006C306.867 219.767 304.608 222.027 301.846 222.027H284.886C282.123 222.027 279.863 219.767 279.863 217.006V215.533C281.709 215.321 286.81 214.889 293.149 215.629C298.488 216.253 303.873 215.953 306.867 215.683Z" fill="#233862"/>
<path d="M302.296 202.06H284.627V205.341H302.296V202.06Z" fill="#6980E2"/>
<path d="M303.156 202.06H283.143C282.7 202.06 282.341 201.701 282.341 201.258C282.341 200.815 282.7 200.456 283.143 200.456H303.156C303.599 200.456 303.957 200.815 303.957 201.258C303.957 201.701 303.597 202.06 303.156 202.06Z" fill="#6980E2"/>
<path d="M170.416 99.9252C170.666 99.803 170.156 98.9689 169.593 98.0304C169.565 97.9848 169.539 97.9392 169.511 97.8936C169.436 97.7681 169.361 97.6427 169.286 97.5173C168.625 96.3882 168.794 95.8587 168.953 94.179C169.08 92.8138 171.075 86.5544 171.075 86.5544L168.179 86.0558C168.179 86.0558 167.305 91.0412 166.344 91.8085C165.829 92.2175 165.254 92.2224 164.761 92.527C164.726 92.5482 164.692 92.5694 164.658 92.5922C164.534 92.6736 165.251 94.1513 166.491 95.7561C168.055 97.7763 170.251 100.005 170.416 99.9252Z" fill="#EA9F6B"/>
<path d="M163.866 93.2276C163.641 93.4866 163.612 93.775 163.724 94.0829C163.724 94.0845 163.724 94.0862 163.726 94.0878C163.979 94.6564 164.643 95.2902 165.407 95.9239C165.507 96.007 165.595 96.0836 165.675 96.1536C165.696 96.1715 165.715 96.1895 165.735 96.2074C165.751 96.222 165.766 96.2367 165.782 96.2497C166.52 96.9308 166.243 97.0855 167.568 98.4671C169.08 100.041 170.121 100.069 170.417 99.9252C170.668 99.803 170.158 98.9689 169.594 98.0305C169.3 97.9229 167.933 97.3674 166.9 96.0445C165.989 94.8828 165.383 93.3905 164.762 92.5254C164.728 92.5466 164.694 92.5678 164.66 92.5906C164.378 92.7779 164.091 92.9702 163.866 93.2276Z" fill="#233862"/>
<path d="M195.922 90.3749C195.978 90.1077 194.976 90.0132 193.902 89.8894C193.767 89.8747 193.632 89.8568 193.496 89.8405C192.283 89.689 191.395 88.9053 190.293 88.2634C189.249 87.6541 187.692 85.1745 187.692 85.1745L184.912 85.3944C184.912 85.3944 186.37 87.6101 186.936 88.573C187.268 89.1399 187.25 89.8894 187.209 90.4677C187.2 90.603 188.76 90.9907 190.6 90.9891C193.019 90.9858 195.886 90.5459 195.922 90.3749Z" fill="#EA9F6B"/>
<path d="M190.106 91.8151C191.53 91.4664 191.191 91.8802 193.219 91.657C195.246 91.4322 195.86 90.6763 195.922 90.3749C195.978 90.1077 194.976 90.0132 193.902 89.8894L193.892 89.9106C193.892 89.9106 192.677 90.7724 190.989 90.8131C189.614 90.8473 188.157 90.4531 187.208 90.4677C187.186 90.7822 187.165 91.1031 187.229 91.4192C187.406 92.3136 188.682 92.1637 190.106 91.8151Z" fill="#233862"/>
<path d="M176.576 73.643L173.977 80.6355L170.585 89.7656C170.585 89.7656 169.665 89.8552 168.783 89.601C167.972 89.3664 167.04 88.7522 167.04 88.7522C167.04 88.7522 167.982 78.9493 169.739 73.3204C170.189 71.8754 170.694 70.7072 171.251 70.049C173.974 66.8314 176.576 73.643 176.576 73.643Z" fill="#233862"/>
<path d="M173.933 62.5384C172.23 61.9893 167.375 62.6948 162.498 63.6495L161.476 61.9649L150.94 61.1422C150.94 61.1422 147.463 68.8515 149.366 73.7652C149.647 74.4869 150.202 74.9496 151.15 74.9659H151.303C151.303 74.9659 157.574 74.9626 159.611 74.9626C164.85 74.9626 170.699 71.3605 171.457 71.209C172.695 70.9613 173.19 73.4377 174.428 76.0395C175.666 78.6397 186.07 87.558 186.07 87.558C186.07 87.558 187.669 87.5743 188.33 87.3266C189.04 87.0611 189.301 86.714 189.301 86.714C189.301 86.714 177.771 63.7766 173.933 62.5384Z" fill="#2B478B"/>
<path d="M161.06 31.2855C159.711 30.5768 157.657 30.4807 157.323 30.4367C153.332 29.9007 150.928 35.7023 150.787 37.4602C150.526 40.7007 148.812 41.1943 146.399 43.2243C141.562 47.2924 142.98 52.0203 145.625 53.7782C147.212 54.8323 150.01 53.7782 150.01 53.7782C150.049 53.8059 157.66 49.5228 161.412 47.4586C167.038 46.6554 164.5 33.0923 161.06 31.2855Z" fill="#233862"/>
<path d="M158.27 45.6974C158.286 45.7088 156.424 46.3442 155.178 45.7919C154.006 45.2738 153.118 43.3465 153.136 43.3449C153.669 43.3204 154.254 42.8545 154.705 39.7965L154.932 39.8779L158.747 41.2514C158.747 41.2514 158.47 42.4765 158.293 43.6414C158.141 44.6205 158.061 45.5589 158.27 45.6974Z" fill="#EA9F6B"/>
<path d="M158.747 41.2513C158.747 41.2513 158.747 41.6977 158.415 42.9066C156.224 42.5123 155.24 41.064 154.932 39.8779L158.747 41.2513Z" fill="#ED975D"/>
<path d="M159.316 42.4667C159.316 42.4667 154.096 41.7662 154.581 38.5224C155.069 35.2787 154.722 33.0027 158.076 33.3123C161.431 33.6218 161.89 34.9577 161.991 36.0803C162.092 37.2028 160.686 42.5661 159.316 42.4667Z" fill="#EA9F6B"/>
<path d="M161.8 34.3012C161.8 34.3012 158.459 37.1816 156.185 37.4129C153.912 37.6443 153.05 36.916 153.05 36.916C153.05 36.916 154.389 35.8033 155.196 34.0079C155.434 33.4784 155.935 33.1151 156.514 33.0662C158.138 32.9261 161.216 32.8626 161.8 34.3012Z" fill="#233862"/>
<path d="M159.712 34.0437C159.712 34.0437 160.829 35.1255 161.181 35.9271C161.522 36.701 161.623 38.5517 161.352 39.2865C161.352 39.2865 163.094 35.8994 162.108 34.2539C161.062 32.5074 159.712 34.0437 159.712 34.0437Z" fill="#233862"/>
<path d="M162.665 53.3872C162.507 63.9542 162.621 61.7466 161.466 62.7486C161.188 62.9897 160.404 63.1347 159.374 63.2015C156.134 63.4166 150.438 62.8822 150.222 62.2843C149.474 60.2119 150.002 59.5684 149.378 56.3964C149.313 56.0591 149.233 55.6942 149.138 55.2966C148.619 53.1168 148.112 52.3771 149.956 48.876C151.629 45.7056 153.366 43.1314 153.522 43.2243C157.936 45.844 158.291 43.6414 158.291 43.6414C158.291 43.6414 162.742 48.2325 162.665 53.3872Z" fill="#8C9DF4"/>
<path d="M173.975 80.6355L170.583 89.7655C170.583 89.7655 169.663 89.8552 168.781 89.601C167.97 89.3664 167.038 88.7522 167.038 88.7522C167.038 88.7522 167.98 78.9493 169.738 73.3204L173.975 80.6355Z" fill="#2B478B"/>
<path d="M158.293 43.6414C158.293 43.6414 162.833 44.412 163.368 46.367C163.9 48.3221 167.04 59.816 167.04 59.816C167.04 59.816 164.731 60.2315 163.664 59.1644C162.597 58.0972 159.953 49.2703 159.953 49.2703L158.293 43.6414Z" fill="#8C9DF4"/>
<path d="M163.276 57.2843C163.276 57.2843 162.822 52.8773 162.667 52.8773C162.511 52.8773 162.199 57.2843 162.199 57.2843H163.276Z" fill="#6980E2"/>
<path d="M159.373 63.2031C156.132 63.4182 150.437 62.8838 150.22 62.2859C149.472 60.2136 150 59.57 149.376 56.398L150.938 51.9975C150.938 51.9975 150.679 56.8981 152.126 58.1868C153.57 59.4755 158.043 60.6746 158.746 61.7515C159.086 62.268 159.309 62.7861 159.373 63.2031Z" fill="#6980E2"/>
<path d="M157.426 56.0216L156.465 65.6323L164.407 66.6994L169.475 63.8336L170.95 55.1467L165.989 57.8708L157.426 56.0216Z" fill="#FFA561"/>
<path d="M165.989 57.8708L164.407 66.6994L169.476 63.8336L170.95 55.1467L165.989 57.8708Z" fill="#A76131"/>
<path d="M154.915 61.1145C154.915 61.1145 157.3 61.2497 157.752 61.5397C158.201 61.8297 159.332 62.4472 159.005 62.6085C158.679 62.7698 157.981 62.1865 157.968 62.4211C157.955 62.6557 159.415 63.5518 159.981 63.7131C160.546 63.8744 158.759 64.425 157.871 63.9542C157.046 63.5176 156.812 62.9571 156.474 62.7404C156.137 62.5238 154.915 62.3885 154.915 62.3885V61.1145V61.1145Z" fill="#EA9F6B"/>
<path d="M153.519 43.2227C153.519 43.2227 149.226 43.4866 147.74 45.5589C145.649 48.4768 141.499 60.9108 143.878 62.5677C146.556 64.4348 156.067 63.0565 156.067 63.0565C156.067 63.0565 156.383 61.5772 155.943 60.862C155.504 60.1468 148.347 58.99 148.017 58.6593C147.687 58.3286 152.146 52.2191 152.146 51.2285C152.146 50.238 153.519 43.2227 153.519 43.2227Z" fill="#8C9DF4"/>
<path d="M157.955 56.1356L158.293 55.3194C158.293 55.3194 160.135 55.9939 161.628 55.9173C163.12 55.8408 165.526 56.4582 165.759 57.1653C165.759 57.1653 166.305 56.3083 167.397 56.0477C168.488 55.7886 170.254 55.0816 170.254 55.0816L170.73 55.2689L165.992 57.8724L157.955 56.1356Z" fill="white"/>
<path d="M26.4761 223.487H36.5217C37.0594 222.975 36.1486 221.815 35.1972 221.737C34.7834 221.703 34.2604 221.799 33.6641 221.941C33.5256 219.886 32.7371 210.65 29.7622 211.022C26.4174 211.437 29.7622 215.09 30.7071 217.252C31.4077 218.853 32.1473 221.15 32.4846 222.234C32.2125 222.299 31.9323 222.364 31.6439 222.423C31.2008 220.9 29.5504 215.776 27.4536 216.074C24.9903 216.424 25.9808 218.479 27.7257 219.697C29.0062 220.593 30.58 221.869 31.3262 222.485C30.6924 222.6 30.0326 222.679 29.3614 222.661C27.6426 222.615 26.8019 223.182 26.4761 223.487Z" fill="#A8D29F"/>
<path d="M382.718 223.487H372.548C372.004 222.97 372.925 221.796 373.889 221.716C374.308 221.68 374.837 221.778 375.442 221.921C375.582 219.841 376.38 210.491 379.393 210.867C382.78 211.287 379.393 214.984 378.435 217.174C377.726 218.795 376.978 221.12 376.636 222.216C376.911 222.283 377.196 222.348 377.486 222.408C377.934 220.865 379.606 215.678 381.729 215.981C384.223 216.335 383.22 218.415 381.454 219.65C380.157 220.557 378.565 221.848 377.807 222.472C378.448 222.589 379.117 222.667 379.797 222.649C381.538 222.604 382.389 223.179 382.718 223.487Z" fill="#A8D29F"/>
<path d="M335.469 210.834C336.307 211.19 339.301 210.903 339.399 210.652C339.497 210.401 337.537 208.016 336.699 207.661C335.862 207.306 334.907 207.728 334.567 208.604C334.226 209.481 334.63 210.479 335.469 210.834Z" fill="#A8D29F"/>
<path d="M343.022 212.33C342.552 213.138 342.34 216.274 342.56 216.414C342.78 216.555 345.349 214.919 345.818 214.112C346.289 213.304 346.045 212.252 345.272 211.76C344.502 211.266 343.493 211.522 343.022 212.33Z" fill="#A8D29F"/>
<path d="M338.987 218.467C339.849 218.754 342.814 218.229 342.892 217.974C342.97 217.716 340.844 215.494 339.982 215.206C339.121 214.919 338.2 215.416 337.925 216.317C337.649 217.218 338.125 218.179 338.987 218.467Z" fill="#A8D29F"/>
<path d="M343.348 221.502C343.345 221.431 343.014 214.334 339.296 210.668L339.376 210.58C343.128 214.279 343.461 221.424 343.464 221.496L343.348 221.502Z" fill="#A8D29F"/>
<path d="M355.756 210.988C355.235 211.349 353.163 211.589 353.065 211.432C352.965 211.276 353.98 209.373 354.502 209.011C355.023 208.65 355.729 208.798 356.074 209.344C356.421 209.89 356.278 210.626 355.756 210.988Z" fill="#A8D29F"/>
<path d="M350.825 213.096C351.252 213.576 351.81 215.675 351.68 215.802C351.55 215.929 349.588 215.191 349.163 214.71C348.736 214.23 348.764 213.48 349.223 213.034C349.681 212.587 350.399 212.615 350.825 213.096Z" fill="#A8D29F"/>
<path d="M354.378 216.678C353.831 216.998 351.748 217.071 351.662 216.908C351.574 216.745 352.724 214.929 353.272 214.608C353.819 214.288 354.51 214.492 354.816 215.064C355.119 215.636 354.925 216.359 354.378 216.678Z" fill="#A8D29F"/>
<path d="M351.818 219.37C351.81 219.321 351.097 214.455 353.135 211.427L353.07 211.38C351.012 214.435 351.732 219.334 351.739 219.383L351.818 219.37Z" fill="#A8D29F"/>
<path d="M348.138 221.089L347.902 221.05C346.97 208.449 343.29 199.407 343.239 199.283L343.454 199.186C343.505 199.311 347.213 208.412 348.138 221.089Z" fill="#A8D29F"/>
<path d="M340.742 198.016C341.196 198.554 343.321 199.419 343.467 199.283C343.614 199.148 343.057 196.836 342.604 196.299C342.149 195.761 341.366 195.711 340.851 196.185C340.338 196.657 340.287 197.478 340.742 198.016Z" fill="white"/>
<path d="M343.998 196.141C343.588 196.716 343.216 199.068 343.373 199.191C343.529 199.313 345.579 198.267 345.989 197.692C346.4 197.117 346.286 196.304 345.735 195.875C345.186 195.448 344.407 195.566 343.998 196.141Z" fill="white"/>
<path d="M346.442 198.643C345.781 198.454 343.55 198.953 343.498 199.15C343.446 199.347 345.127 200.96 345.789 201.147C346.45 201.336 347.133 200.927 347.314 200.237C347.495 199.544 347.105 198.831 346.442 198.643Z" fill="white"/>
<path d="M344.937 201.761C344.872 201.048 343.635 199.044 343.44 199.063C343.244 199.083 342.398 201.297 342.464 202.011C342.53 202.724 343.136 203.247 343.819 203.179C344.502 203.109 345.002 202.475 344.937 201.761Z" fill="white"/>
<path d="M341.553 201.608C342.161 201.274 343.467 199.321 343.378 199.14C343.286 198.959 341.007 198.976 340.399 199.31C339.792 199.643 339.559 200.427 339.876 201.063C340.196 201.696 340.947 201.941 341.553 201.608Z" fill="white"/>
<path d="M342.974 199.073C343.009 198.84 343.218 198.681 343.441 198.718C343.664 198.756 343.816 198.974 343.78 199.207C343.744 199.44 343.534 199.599 343.312 199.562C343.091 199.525 342.938 199.306 342.974 199.073Z" fill="#B95E37"/>
<path d="M348.071 208.205C347.397 209.073 346.669 212.711 346.905 212.913C347.141 213.115 350.401 211.628 351.076 210.759C351.75 209.893 351.625 208.617 350.795 207.912C349.964 207.206 348.746 207.338 348.071 208.205Z" fill="#A8D29F"/>
<path d="M329.104 210.606C329.152 210.681 331.31 214.495 333.335 220.626C333.252 220.601 333.181 220.588 333.097 220.564C331.095 214.533 328.985 210.794 328.938 210.719L329.104 210.606Z" fill="#A8D29F"/>
<path d="M326.62 209.911C327.074 210.325 329.019 210.821 329.132 210.686C329.244 210.551 328.506 208.604 328.052 208.192C327.597 207.78 326.908 207.829 326.514 208.304C326.116 208.777 326.165 209.497 326.62 209.911Z" fill="white"/>
<path d="M329.248 207.887C328.954 208.438 328.889 210.53 329.039 210.618C329.189 210.706 330.859 209.549 331.152 208.998C331.445 208.449 331.256 207.754 330.732 207.447C330.206 207.141 329.541 207.338 329.248 207.887Z" fill="white"/>
<path d="M331.651 209.771C331.054 209.686 329.168 210.388 329.145 210.566C329.122 210.743 330.761 211.946 331.359 212.03C331.957 212.115 332.506 211.677 332.586 211.053C332.666 210.429 332.249 209.855 331.651 209.771Z" fill="white"/>
<path d="M330.683 212.667C330.548 212.055 329.251 210.458 329.083 210.499C328.915 210.54 328.423 212.57 328.558 213.182C328.694 213.795 329.28 214.178 329.867 214.036C330.453 213.892 330.82 213.28 330.683 212.667Z" fill="white"/>
<path d="M327.721 212.941C328.213 212.578 329.137 210.72 329.037 210.574C328.938 210.427 326.955 210.716 326.463 211.079C325.971 211.442 325.854 212.154 326.201 212.667C326.55 213.18 327.229 213.304 327.721 212.941Z" fill="white"/>
<path d="M328.679 210.562C328.684 210.355 328.85 210.191 329.047 210.197C329.246 210.202 329.402 210.375 329.396 210.584C329.391 210.79 329.226 210.955 329.028 210.949C328.83 210.942 328.674 210.769 328.679 210.562Z" fill="#B95E37"/>
<path d="M332.716 214.717C332.338 215.36 332.159 217.866 332.333 217.98C332.509 218.093 334.567 216.794 334.945 216.151C335.323 215.507 335.131 214.663 334.515 214.269C333.901 213.871 333.094 214.073 332.716 214.717Z" fill="#A8D29F"/>
<path d="M361.089 221.282L361.348 221.24C362.366 207.469 366.388 197.586 366.444 197.451L366.208 197.345C366.152 197.482 362.102 207.428 361.089 221.282Z" fill="#A8D29F"/>
<path d="M369.173 196.066C368.677 196.654 366.354 197.599 366.193 197.451C366.031 197.302 366.641 194.775 367.136 194.187C367.631 193.599 368.49 193.544 369.052 194.062C369.614 194.58 369.669 195.478 369.173 196.066Z" fill="white"/>
<path d="M365.614 194.018C366.063 194.647 366.47 197.218 366.297 197.351C366.124 197.485 363.886 196.343 363.438 195.714C362.99 195.085 363.114 194.197 363.715 193.728C364.316 193.259 365.166 193.389 365.614 194.018Z" fill="white"/>
<path d="M362.943 196.75C363.666 196.545 366.103 197.089 366.16 197.304C366.216 197.521 364.38 199.282 363.658 199.489C362.934 199.694 362.188 199.249 361.991 198.493C361.792 197.737 362.219 196.957 362.943 196.75Z" fill="white"/>
<path d="M364.588 200.158C364.66 199.378 366.012 197.188 366.224 197.209C366.437 197.231 367.361 199.65 367.289 200.43C367.218 201.211 366.555 201.781 365.808 201.706C365.064 201.633 364.516 200.939 364.588 200.158Z" fill="white"/>
<path d="M368.286 199.992C367.623 199.627 366.193 197.493 366.292 197.296C366.392 197.097 368.884 197.117 369.547 197.48C370.21 197.843 370.466 198.702 370.118 199.396C369.769 200.09 368.949 200.355 368.286 199.992Z" fill="white"/>
<path d="M366.734 197.221C366.695 196.967 366.467 196.792 366.222 196.833C365.978 196.874 365.812 197.113 365.851 197.368C365.89 197.622 366.118 197.796 366.362 197.755C366.607 197.715 366.773 197.475 366.734 197.221Z" fill="#B95E37"/>
<path d="M360.489 210.89C361.227 211.838 362.022 215.817 361.763 216.036C361.504 216.256 357.941 214.63 357.205 213.682C356.467 212.734 356.605 211.339 357.511 210.569C358.418 209.798 359.751 209.942 360.489 210.89Z" fill="#A8D29F"/>
<path d="M364.785 211.792C363.746 212.351 361.489 215.662 361.643 215.971C361.796 216.281 365.683 216.287 366.722 215.727C367.762 215.168 368.171 213.834 367.636 212.747C367.1 211.66 365.825 211.234 364.785 211.792Z" fill="#A8D29F"/>
<path d="M326.234 223.244C326.234 223.244 327.424 219.971 331.747 219.766C336.069 219.56 339.046 222.231 342.618 220.999C346.19 219.766 352.1 216.983 357.693 218.837C363.285 220.691 364.228 223.244 364.228 223.244H326.234Z" fill="#A8D29F"/>
<defs>
<clipPath id="clip0">
<rect width="172" height="139" fill="white" transform="translate(114 86)"/>
</clipPath>
</defs>
</svg>
